<svg width="23" height="23" viewBox="0 0 23 23" fill="none" xmlns="http://www.w3.org/2000/svg">
<path d="M18.2083 5.75H4.79167C3.73312 5.75 2.875 6.60812 2.875 7.66667V18.2083C2.875 19.2669 3.73312 20.125 4.79167 20.125H18.2083C19.2669 20.125 20.125 19.2669 20.125 18.2083V7.66667C20.125 6.60812 19.2669 5.75 18.2083 5.75Z" stroke="#727272"/>
<path d="M2.875 9.58333C2.875 7.77592 2.875 6.87317 3.43658 6.31158C3.99817 5.75 4.90092 5.75 6.70833 5.75H16.2917C18.0991 5.75 19.0018 5.75 19.5634 6.31158C20.125 6.87317 20.125 7.77592 20.125 9.58333H2.875Z" fill="#727272"/>
<path d="M6.7085 2.875V5.75M16.2918 2.875V5.75" stroke="#727272" stroke-linecap="round"/>
<path d="M10.0627 11.5H7.18766C6.92303 11.5 6.7085 11.7145 6.7085 11.9792V12.9375C6.7085 13.2021 6.92303 13.4167 7.18766 13.4167H10.0627C10.3273 13.4167 10.5418 13.2021 10.5418 12.9375V11.9792C10.5418 11.7145 10.3273 11.5 10.0627 11.5Z" fill="#727272"/>
<path d="M10.0627 15.3334H7.18766C6.92303 15.3334 6.7085 15.5479 6.7085 15.8125V16.7709C6.7085 17.0355 6.92303 17.25 7.18766 17.25H10.0627C10.3273 17.25 10.5418 17.0355 10.5418 16.7709V15.8125C10.5418 15.5479 10.3273 15.3334 10.0627 15.3334Z" fill="#727272"/>
<path d="M15.8127 11.5H12.9377C12.673 11.5 12.4585 11.7145 12.4585 11.9792V12.9375C12.4585 13.2021 12.673 13.4167 12.9377 13.4167H15.8127C16.0773 13.4167 16.2918 13.2021 16.2918 12.9375V11.9792C16.2918 11.7145 16.0773 11.5 15.8127 11.5Z" fill="#727272"/>
<path d="M15.8127 15.3334H12.9377C12.673 15.3334 12.4585 15.5479 12.4585 15.8125V16.7709C12.4585 17.0355 12.673 17.25 12.9377 17.25H15.8127C16.0773 17.25 16.2918 17.0355 16.2918 16.7709V15.8125C16.2918 15.5479 16.0773 15.3334 15.8127 15.3334Z" fill="#727272"/>
</svg>
